<svg width="215" height="64" viewBox="0 0 215 64" fill="none" xmlns="http://www.w3.org/2000/svg">
<path d="M55.2519 18.7507H51.9184C51.4806 18.7507 51.0471 18.837 50.6426 19.0045C50.2384 19.172 49.8709 19.4175 49.5611 19.727C49.2516 20.0367 49.0061 20.4042 48.8386 20.8085C48.6711 21.213 48.5849 21.6465 48.5849 22.0842V35.419C48.5849 39.8394 46.8289 44.0788 43.7031 47.2046C40.5774 50.3304 36.3381 52.0864 31.9176 52.0865C29.7288 52.0865 27.5615 51.6554 25.5393 50.8177C23.5171 49.9801 21.6797 48.7524 20.132 47.2047C18.5843 45.6569 17.3566 43.8195 16.519 41.7973C15.6814 39.7752 15.2503 37.6078 15.2504 35.419L15.2504 22.0852C15.2505 21.6475 15.1644 21.2137 14.9969 20.8092C14.8294 20.4047 14.5839 20.037 14.2744 19.7275C13.9648 19.4177 13.5973 19.1722 13.1928 19.0045C12.7883 18.837 12.3547 18.7507 11.9169 18.7507H8.58337L8.58338 35.4182C8.58338 38.4825 9.18694 41.5168 10.3596 44.3478C11.5323 47.1789 13.2511 49.7512 15.4178 51.9179C17.5846 54.0847 20.157 55.8035 22.988 56.9761C25.819 58.1487 28.8533 58.7523 31.9176 58.7522C38.1061 58.7522 44.0414 56.2939 48.4174 51.9179C52.7934 47.5419 55.2519 41.6068 55.2519 35.4182V18.7507Z" fill="url(#paint0_linear_1034_3443)"/>
<path d="M31.9176 45.4195C34.5699 45.4195 37.1134 44.3659 38.9886 42.4905C40.8641 40.6152 41.9176 38.0716 41.9176 35.4195V18.7507C41.9176 16.9825 42.6201 15.287 43.8704 14.0367C45.1206 12.7865 46.8164 12.084 48.5846 12.084L55.2516 12.084V5.41699L48.5849 5.41699C45.0486 5.41699 41.6571 6.82174 39.1564 9.32224C36.6559 11.823 35.2511 15.2145 35.2511 18.7507L35.2511 35.419C35.2511 36.3031 34.8999 37.151 34.2749 37.7761C33.6496 38.4013 32.8017 38.7525 31.9176 38.7525C31.0335 38.7525 30.1856 38.4013 29.5605 37.7761C28.9353 37.151 28.5841 36.3031 28.5841 35.419L28.5841 18.7507C28.5841 15.2145 27.1793 11.823 24.6787 9.32224C22.1782 6.82174 18.7867 5.41699 15.2504 5.41699L8.58337 5.41699L8.58337 12.085H15.2504C17.0183 12.085 18.7139 12.7872 19.9641 14.0372C21.2143 15.2872 21.9168 16.9827 21.9171 18.7507V35.419C21.917 36.7323 22.1757 38.0327 22.6782 39.2461C23.1808 40.4594 23.9174 41.5619 24.846 42.4905C25.7747 43.4192 26.8772 44.1558 28.0905 44.6584C29.3039 45.1609 30.6043 45.4195 31.9176 45.4195Z" fill="url(#paint1_linear_1034_3443)"/>
<path d="M86.896 43.416C85.104 43.416 83.5307 42.9787 82.176 42.104C80.832 41.2293 79.7867 40.056 79.04 38.584C78.2933 37.1013 77.92 35.4587 77.92 33.656V20.6H81.824V33.656C81.824 34.7227 82.0213 35.704 82.416 36.6C82.8213 37.4853 83.3973 38.1947 84.144 38.728C84.9013 39.2507 85.8187 39.512 86.896 39.512C87.984 39.512 88.9013 39.2507 89.648 38.728C90.3947 38.1947 90.96 37.4853 91.344 36.6C91.7387 35.704 91.936 34.7227 91.936 33.656V20.6H95.84V33.656C95.84 35.0107 95.6267 36.28 95.2 37.464C94.7733 38.6373 94.1653 39.672 93.376 40.568C92.5867 41.464 91.6427 42.1627 90.544 42.664C89.456 43.1653 88.24 43.416 86.896 43.416ZM99.782 43V19H103.686V43H99.782ZM116.215 30.904H113.111V43H109.207V30.904H106.839V27H109.207V21.976H113.111V27H116.215V30.904ZM128.836 30.968C128.548 30.776 128.233 30.6213 127.892 30.504C127.561 30.3867 127.193 30.328 126.788 30.328C126.009 30.328 125.337 30.5307 124.772 30.936C124.217 31.3413 123.79 31.8853 123.492 32.568C123.193 33.24 123.044 33.9867 123.044 34.808V43H119.108V27H123.012V28.888C123.545 28.184 124.18 27.624 124.916 27.208C125.662 26.792 126.505 26.584 127.444 26.584C127.806 26.584 128.153 26.5947 128.484 26.616C128.825 26.6373 129.15 26.696 129.46 26.792L128.836 30.968ZM143.082 27H146.986V43H143.066L142.906 41.016C142.458 41.7307 141.872 42.312 141.146 42.76C140.432 43.1973 139.589 43.416 138.618 43.416C137.434 43.416 136.325 43.192 135.29 42.744C134.256 42.296 133.344 41.6773 132.554 40.888C131.765 40.0987 131.152 39.1867 130.714 38.152C130.277 37.1173 130.058 36.008 130.058 34.824C130.058 33.6827 130.266 32.6107 130.682 31.608C131.098 30.6053 131.685 29.7253 132.442 28.968C133.2 28.2107 134.074 27.6187 135.066 27.192C136.058 26.7653 137.125 26.552 138.266 26.552C139.333 26.552 140.282 26.7867 141.114 27.256C141.957 27.7253 142.672 28.3227 143.258 29.048L143.082 27ZM138.73 39.656C139.584 39.656 140.325 39.4373 140.954 39C141.584 38.5627 142.058 37.9813 142.378 37.256C142.709 36.52 142.842 35.7093 142.778 34.824C142.704 33.992 142.458 33.24 142.042 32.568C141.626 31.8853 141.093 31.3413 140.442 30.936C139.792 30.5307 139.061 30.328 138.25 30.328C137.408 30.328 136.65 30.5467 135.978 30.984C135.317 31.4213 134.805 32.008 134.442 32.744C134.08 33.4693 133.936 34.28 134.01 35.176C134.096 35.9973 134.362 36.7493 134.81 37.432C135.258 38.104 135.824 38.6427 136.506 39.048C137.2 39.4533 137.941 39.656 138.73 39.656ZM158.626 43V20.6H162.85L172.306 35.944V20.6H176.21V43H172.002L162.53 27.656V43H158.626ZM180.483 43V20.6H193.715V24.504H184.387V29.048H192.179V32.952H184.387V43H180.483ZM212.911 20.6V24.504H206.063V43H202.159V24.504H195.311V20.6H212.911Z" fill="white"/>
<defs>
<linearGradient id="paint0_linear_1034_3443" x1="31.9591" y1="-5.7515" x2="-4.33856" y2="54.8271" gradientUnits="userSpaceOnUse">
<stop stop-color="#FDAE8F"/>
<stop offset="1" stop-color="#FD1C68"/>
</linearGradient>
<linearGradient id="paint1_linear_1034_3443" x1="31.9591" y1="-5.7515" x2="-4.33856" y2="54.8271" gradientUnits="userSpaceOnUse">
<stop stop-color="#FDAE8F"/>
<stop offset="1" stop-color="#FD1C68"/>
</linearGradient>
</defs>
</svg>
